<svg width="750" height="895" viewBox="0 0 750 895" fill="none" xmlns="http://www.w3.org/2000/svg">
<path d="M373.5 182C391.407 271.416 402.517 318.738 430.736 383.047L401.241 422.909L378.121 457.573L373.5 182Z" fill="#FF0C10"/>
<path d="M684.398 521.701C602.142 541.166 558.609 553.244 499.449 583.919L462.779 551.856L430.891 526.725L684.398 521.701Z" fill="#D9D9D9"/>
<path d="M373.344 849.266C355.437 759.85 344.326 712.528 316.108 648.219L345.603 608.356L368.723 573.693L373.344 849.266Z" fill="#D9D9D9"/>
<path d="M61 521.518C143.256 502.052 186.79 489.975 245.949 459.3L282.62 491.362L314.508 516.494L61 521.518Z" fill="#D9D9D9"/>
<path d="M373.5 182C355.543 271.978 344.401 319.598 316.102 384.311L345.681 424.424L368.866 459.306L373.5 182Z" fill="#D9D9D9"/>
<path d="M686 521.701C603.226 502.181 559.419 490.069 499.888 459.307L462.986 491.461L430.898 516.664L686 521.701Z" fill="#303030"/>
<path d="M374.926 851C392.883 761.022 404.025 713.402 432.324 648.689L402.745 608.576L379.56 573.694L374.926 851Z" fill="#303030"/>
<path d="M61 523.252C143.774 542.772 187.581 554.884 247.112 585.646L284.014 553.493L316.102 528.29L61 523.252Z" fill="#303030"/>
<circle cx="373.5" cy="522.5" r="133.5" stroke="black" stroke-width="10"/>
<ellipse cx="373" cy="522" rx="131" ry="130" fill="#E4D2AF"/>
<path d="M412.091 30.9091V124H401.182L350.455 50.9091H349.545V124H338.273V30.9091H349.182L400.091 104.182H401V30.9091H412.091Z" fill="#FF0C10"/>
<circle cx="375" cy="520" r="370" stroke="black" stroke-width="10"/>
<path d="M336 471L345 461.5H401L411 471V568L401 577.5H346.5L336 568V471Z" fill="#287233"/>
<path d="M417 472L441 462V577.5L417 567.5V472Z" fill="#287233"/>
<path d="M330 472L306 462V577.5L330 567.5V472Z" fill="#287233"/>
<path d="M346 583H401.5L410 607H336.5L346 583Z" fill="#287233"/>
<path d="M346.5 456H402L410.5 432H337L346.5 456Z" fill="#287233"/>
<path d="M406 581L414.5 572L427 576.5L439 581L414.5 605L406 581Z" fill="#287233"/>
<path d="M406 458L414.5 467L427 462.5L439 458L414.5 434L406 458Z" fill="#287233"/>
<path d="M341 581L332.5 572L320 576.5L308 581L332.5 605L341 581Z" fill="#287233"/>
<path d="M332 467L341 458.5L336.5 446L332 434L308 458.5L332 467Z" fill="#287233"/>
</svg>
